<?xml version="1.0" encoding="utf-8"?> <!-- Generator: IcoMoon.io --> <!DOCTYPE svg PUBLIC "-//W3C//DTD SVG 1.1//EN" "http://www.w3.org/Graphics/SVG/1.1/DTD/svg11.dtd"> <svg width="16" height="16" viewBox="0 0 16 16" xmlns="http://www.w3.org/2000/svg" xmlns:xlink="http://www.w3.org/1999/xlink" fill="#000000"><g><path d="M 11,0L 5,0 L 2,2l0,4 l 12,0 L 14,2 L 11,0z M 10,5l-1,0 l0-0.667 C 9,4.15, 8.85,4, 8.667,4l-1.333,0 c-0.183,0-0.333,0.15-0.333,0.333L 7,5 l-1,0 l0-1.667 C 6,3.15, 6.15,3, 6.333,3l 3.333,0 c 0.183,0, 0.333,0.15, 0.333,0.333 L 10,5 zM 2,11l 12,0 L 14,7 L 2,7 L 2,11 z M 6,8.333c0-0.183, 0.15-0.333, 0.333-0.333l 3.333,0 c 0.183,0, 0.333,0.15, 0.333,0.333L 10,10 l-1,0 l0-0.667 c0-0.183-0.15-0.333-0.333-0.333l-1.333,0 c-0.183,0-0.333,0.15-0.333,0.333L 7,10 l-1,0 L 6,8.333 zM 2,16l 12,0 L 14,12 L 2,12 L 2,16 z M 6,13.333c0-0.183, 0.15-0.333, 0.333-0.333l 3.333,0 c 0.183,0, 0.333,0.15, 0.333,0.333 L 10,15 l-1,0 l0-0.667 c0-0.183-0.15-0.333-0.333-0.333l-1.333,0 c-0.183,0-0.333,0.15-0.333,0.333L 7,15 l-1,0 L 6,13.333 z"></path></g></svg>